<svg xmlns="http://www.w3.org/2000/svg" id="SvgjsSvg9056" width="4096" height="2648.5300201457176" version="1.1" xmlns:xlink="http://www.w3.org/1999/xlink" xmlns:svgjs="http://svgjs.com/svgjs"><defs id="SvgjsDefs9057"></defs><g id="SvgjsG9058" transform="translate(328, 328) scale(34.4)" opacity="1"><defs id="SvgjsDefs3643"></defs><g id="SvgjsG3644" transform="scale(0.2164502164502165)" opacity="1"><g id="SvgjsG3645" class="1Yp90L4nS" transform="translate(97.19929225184278, 0) scale(2.6760141549631435)" light-content="false" non-strokable="false" fill="#381d1d"><path d="M0 25V0h25v4H4v21H0zm0 50h4v21h21v4H0V75zm100-50h-4V4H75V0h25v25zm0 50v25H75v-4h21V75h4z"></path></g><g id="SvgjsG3646" class="qiCINZyK2O" transform="translate(144.6621245828651, -9.272008746041166) scale(1.5397317976531457)" stroke="#381d1d" stroke-width="0.6762545565023736px" light-content="false" non-strokable="false" fill="#381d1d"><path d="M68.258 96.875a1.564 1.564 0 0 0 1.563-1.563V89.13l.984-11.812.594 4.156c.113.77.77 1.34 1.547 1.34H87.23a6.253 6.253 0 0 0 6.027 4.687h1.562a1.564 1.564 0 0 0 1.563-1.562v-12.5a1.564 1.564 0 0 0-1.563-1.563h-12.5v-4.687a1.562 1.562 0 1 0-3.125 0v6.25A1.568 1.568 0 0 0 80.758 75h6.25v4.688H74.3l-1.37-9.598c-.11-.77-.77-1.34-1.547-1.34H69.82a1.565 1.565 0 0 0-1.562 1.434L66.82 87.5h-4.812v-25h18.75c.766 0 1.418-.555 1.543-1.305l1.515-9.082 12.399-20.668a4.642 4.642 0 0 0-7.465-5.441l-6.184 7.058a3.107 3.107 0 0 0-2.316.094l-.22.102h-.003a9.442 9.442 0 0 0 .613-2.082 1.563 1.563 0 0 0-3.086-.492 6.25 6.25 0 0 1-12.422-.997v-3.125h14.062A1.564 1.564 0 0 0 80.757 25a9.375 9.375 0 1 0-18.75 0v4.687c0 1.254.25 2.493.738 3.649a24.735 24.735 0 0 0-4.562-.102 9.383 9.383 0 0 0 .699-3.547V25c-.004-5.176-4.2-9.367-9.375-9.375h-7.813c-.863 0-1.562.699-1.562 1.562v12.5a9.38 9.38 0 0 0 .644 3.387 3.14 3.14 0 0 0-2.437 0l-6.074-6.937a4.757 4.757 0 0 0-5.625-1.262 4.64 4.64 0 0 0-1.969 6.563l12.406 20.675 1.441 8.649-6.093 15.219v.004a1.56 1.56 0 0 0-.012 1.129l4.043 10.78a6.237 6.237 0 0 0-4.137 5.856v1.563a1.568 1.568 0 0 0 1.563 1.562zm12.723-46.117a1.617 1.617 0 0 0-.2.547l-1.347 8.07H62.008v-16.39c0-.7.465-1.313 1.133-1.505l2.277-.652a6.213 6.213 0 0 0 11.824.344 4.687 4.687 0 0 0 5.45 1.172 4.695 4.695 0 0 0 2.336-6.203l-.344-.758 3.015-3.438 3.008 2.606zm12.094-22.961a1.51 1.51 0 0 1 .46 2.04l-1.19 1.987-2.586-2.238 1.336-1.527h.003c.5-.57 1.344-.68 1.977-.262zm-11.539 8.207v.008l.64 1.406-.003.004a1.562 1.562 0 0 1-2.844 1.29l-.645-1.427zm-7.031 2.516v.543a3.124 3.124 0 1 1-6.25 0v-.547a9.363 9.363 0 0 0 3.125.547 9.481 9.481 0 0 0 3.129-.543zm-3.121-19.77a6.264 6.264 0 0 1 6.054 4.687H65.333a6.26 6.26 0 0 1 6.051-4.687zM55.759 29.688a6.25 6.25 0 0 1-12.5 0v-3.125h12.5zm-9.375 8.828c2.02.73 4.23.73 6.25 0v.547a3.124 3.124 0 1 1-6.25 0zM43.259 18.75h6.25a6.264 6.264 0 0 1 6.054 4.687H43.258zm-3.696 17.188L42.27 37.5l-.78 1.352a1.563 1.563 0 0 1-2.707-1.562zm-12.355-7.313c.121-.414.414-.754.801-.937a1.659 1.659 0 0 1 1.906.504l1.22 1.39-2.583 2.239-1.191-1.977a1.488 1.488 0 0 1-.153-1.219zM41.192 62.5h11.934a1.562 1.562 0 1 0 0-3.125H41.458l-1.343-8.07a1.624 1.624 0 0 0-.204-.547l-9.726-16.211 3.008-2.605 3.058 3.488-.172.297a4.696 4.696 0 0 0 1.72 6.406 4.628 4.628 0 0 0 5.847-1 6.234 6.234 0 0 0 12.113-2.07v-2.387l.828-.125c2.532-.39 5.11-.332 7.618.168l.937.187v.75l-2.852.813a4.711 4.711 0 0 0-3.398 4.508V87.5H53.99l-1.356-9.485v-7.703a1.564 1.564 0 0 0-1.562-1.562h-3.125c-.492 0-.953.23-1.25.625l-4.688 6.25a1.565 1.565 0 0 0-.265 1.316l2.64 10.559h-4.73L35.56 76.582zm3.63 31.25h-9.376a3.127 3.127 0 0 1 3.125-3.125h6.25zm3.077-5.066l-2.945-11.781 3.773-5.028h.782v6.25c0 .075.008.149.015.223l1.348 9.438.004-.004a6.226 6.226 0 0 0-2.93 1.875v-.594zm4.735 1.941h2.433a6.196 6.196 0 0 0-.87 3.125h-4.688a3.127 3.127 0 0 1 3.125-3.125zm14.062 3.125H57.32a3.127 3.127 0 0 1 3.125-3.125h6.25zm26.562-9.375a3.127 3.127 0 0 1-3.125-3.125V75h3.125z"></path><path d="M16.25 60.227a6.247 6.247 0 0 0-7.656 4.418l-1.485 5.562a1.562 1.562 0 1 0 3.02.805l1.484-5.558a3.126 3.126 0 0 1 3.82-2.211l3.02.804-2.426 9.063v.004a1.568 1.568 0 0 0 1.106 1.914c.132.035.27.05.406.05a1.56 1.56 0 0 0 1.508-1.156l2.426-9.062 3.019.805a3.142 3.142 0 0 1 2.227 3.804l-4.063 15.117a6.166 6.166 0 0 0-5.414 1.04 6.165 6.165 0 0 0-2.426 4.953l-6.25-1.68a3.126 3.126 0 0 1-2.21-3.82l2.156-8.032a1.56 1.56 0 0 0-1.106-1.914 1.562 1.562 0 0 0-1.914 1.102l-2.156 8.031a6.25 6.25 0 0 0 4.418 7.656l8.133 2.188h.003a6.194 6.194 0 0 0 3.54 2.566c.527.137 1.07.203 1.613.2a6.204 6.204 0 0 0 5.82-3.829 6.197 6.197 0 0 0-1.41-6.82l4.273-15.914v-.039l4.036-15.059 1.507.406.004-.004a1.56 1.56 0 0 0 .805-3.015l-6.035-1.618A1.56 1.56 0 1 0 29.234 54l1.508.402-2.656 9.895v.004a6.138 6.138 0 0 0-2.774-1.652zm7.813 31.207a3.109 3.109 0 0 1-1.45 1.93 3.103 3.103 0 0 1-2.39.324 3.115 3.115 0 0 1-1.91-1.477 3.123 3.123 0 0 1 3.527-4.559 3.125 3.125 0 0 1 2.223 3.782z"></path><path d="M15.117 84.129a1.56 1.56 0 0 0 1.508-1.16l.808-3.02c.121-.402.075-.84-.132-1.207a1.565 1.565 0 0 0-2.164-.582c-.364.219-.622.57-.72.98l-.808 3.02a1.54 1.54 0 0 0 .156 1.188 1.55 1.55 0 0 0 1.352.781z"></path></g><g id="SvgjsG3647" class="text" transform="translate(234.36, 194.80308731555016) scale(1)" light-content="false" fill="#381d1d"><path d="M-201.24 -19.81L-234.36 -8.75L-232.48 -3.11L-221.92 -6.64L-208.07 34.84L-196.22 30.88L-210.07 -10.59L-199.86 -14Z M-156.07 -8.43C-155.12 -11.17 -155.08 -14.2 -155.96 -17.49C-157.34 -22.63 -159.98 -25.8 -163.89 -27.02C-167.8 -28.23 -172.76 -28.03 -178.77 -26.43C-183.27 -25.22 -188.58 -23.49 -194.67 -21.23L-181.97 26.24L-169.9 23.01L-181.32 -19.67C-180.08 -20.26 -178.85 -20.72 -177.64 -21.04C-172.74 -22.35 -169.49 -20 -167.88 -13.99C-167.03 -10.79 -167.05 -8.23 -167.96 -6.29C-168.88 -4.36 -170.88 -2.98 -173.98 -2.15C-173.83 -1.57 -173.46 -0.89 -172.89 -0.11L-156.16 19.33L-143.58 15.97L-161.25 -1.74C-158.75 -3.45 -157.02 -5.68 -156.07 -8.43Z M-125.8 -38.12L-140.49 -35.21L-144.29 16.17L-135.36 14.41L-135 1.83L-121.35 -0.87L-116.16 10.61L-103.68 8.14ZM-134.75 -4.28L-134.04 -28.97L-123.83 -6.44Z M-69.75 -46.44L-79.75 -45.12L-83 -2.02L-97.58 -42.75L-110.19 -41.09L-91.73 6.58L-76.58 4.57Z M-36.18 -48.88L-63.42 -46.86L-59.75 2.68L-31.98 0.62L-31.9 -5.35L-47.73 -4.17L-48.96 -20.69L-36.42 -21.61L-36.87 -27.62L-49.4 -26.69L-50.52 -41.85L-35.74 -42.95Z M-27.3 -49.23L-26.19 0.43L0.6 -0.18L1.06 -6.36L-13.84 -6.02L-14.81 -49.51Z M59.91 -47.55L43.3 -48.37L32.71 -17.17L25.19 -49.27L8.2 -50.11L5.74 -0.5L13.56 -0.11L15.54 -40.1L25.66 0.49L32.87 0.85L46.95 -38.47L44.98 1.45L57.45 2.06Z M96.1 -42.97L81.25 -44.89L61.28 2.61L70.31 3.78L74.65 -8.03L88.46 -6.24L89.72 6.29L102.33 7.92ZM76.83 -13.74L85.38 -36.92L87.88 -12.31Z M118.74 11.13L128.35 -37.61L116.1 -40.02L106.49 8.71ZM142.01 -34.91L125.08 -13.24L132.92 13.92L145.77 16.46L137.03 -12.35L154.34 -32.48Z M187.45 -23.8L161.01 -30.68L148.5 17.39L175.45 24.4L177.45 18.78L162.09 14.78L166.26 -1.24L178.42 1.92L179.94 -3.9L167.78 -7.07L171.6 -21.78L185.95 -18.05Z M221.65 11.02C223.94 9.24 225.62 6.72 226.68 3.48C228.33 -1.58 227.84 -5.68 225.23 -8.83C222.61 -11.98 218.35 -14.52 212.43 -16.44C207.99 -17.89 202.61 -19.33 196.27 -20.76L181.04 25.96L192.92 29.84L206.6 -12.17C207.97 -11.99 209.25 -11.7 210.44 -11.31C215.26 -9.74 216.71 -6 214.78 -0.08C213.75 3.06 212.33 5.2 210.51 6.32C208.7 7.45 206.26 7.51 203.21 6.51C203.02 7.09 202.95 7.86 203.01 8.82L206.44 34.24L218.82 38.28L213.66 13.8C216.69 13.73 219.35 12.8 221.65 11.02Z"></path></g><g id="SvgjsG3648" class="text" transform="translate(231.5231292338505, 235.8285353695362) scale(1)" light-content="false" fill="#381d1d"><path d="M-43.74 -13.7C-44 -14.55 -44.42 -14.98 -45.02 -14.98C-45.48 -14.98 -45.89 -14.7 -46.27 -14.15C-46.54 -13.32 -46.74 -12.71 -46.85 -12.32C-46.96 -11.93 -47.06 -11.6 -47.13 -11.33C-47.21 -11.05 -47.3 -10.74 -47.41 -10.4C-47.53 -10.07 -47.72 -9.52 -48 -8.77C-48.27 -8.02 -48.47 -7.4 -48.58 -6.92C-48.69 -6.45 -48.81 -6.01 -48.92 -5.63C-49.03 -5.24 -49.17 -4.83 -49.33 -4.4C-49.5 -3.98 -49.78 -3.45 -50.18 -2.82C-50.93 -4.43 -51.45 -5.78 -51.72 -6.87C-52 -7.96 -52.29 -8.86 -52.59 -9.56C-52.66 -9.63 -52.77 -9.82 -52.91 -10.1C-53.05 -10.39 -53.18 -10.71 -53.3 -11.04C-53.43 -11.38 -53.55 -11.69 -53.68 -11.97C-53.8 -12.24 -53.89 -12.41 -53.94 -12.46C-54.74 -12.25 -55.55 -11.53 -56.35 -10.27L-57.03 -8.84C-57.4 -8.04 -57.74 -7.51 -58.04 -7.26C-58.09 -7.21 -58.2 -7.04 -58.36 -6.74C-58.53 -6.43 -58.7 -6.11 -58.89 -5.78C-59.08 -5.44 -59.26 -5.12 -59.44 -4.82C-59.61 -4.52 -59.74 -4.33 -59.81 -4.25C-60.41 -5 -61.07 -6.65 -61.77 -9.18C-62.02 -9.66 -62.22 -10.3 -62.37 -11.1L-62.71 -12.94C-62.99 -13.37 -63.44 -13.58 -64.06 -13.58C-64.39 -13.58 -64.66 -13.48 -64.87 -13.28C-65.09 -13.08 -65.19 -12.79 -65.19 -12.42C-65.19 -12.22 -65.16 -11.91 -65.08 -11.5C-65.01 -11.08 -64.91 -10.64 -64.8 -10.18C-64.69 -9.71 -64.57 -9.28 -64.44 -8.86C-64.32 -8.45 -64.22 -8.15 -64.14 -7.98C-64.04 -7.78 -63.91 -7.48 -63.74 -7.07C-63.58 -6.67 -63.41 -6.24 -63.24 -5.78C-63.06 -5.31 -62.89 -4.87 -62.73 -4.44C-62.57 -4.01 -62.43 -3.69 -62.33 -3.46L-61.2 -1.96C-60.78 -1.38 -60.4 -0.99 -60.08 -0.79C-59.77 -0.82 -59.42 -1.02 -59.02 -1.39C-58.62 -1.77 -58.19 -2.28 -57.74 -2.94C-57.29 -3.59 -56.81 -4.37 -56.29 -5.27C-55.78 -6.17 -55.25 -7.17 -54.69 -8.28C-54.27 -6.92 -53.9 -5.83 -53.6 -4.99C-53.3 -4.15 -53.08 -3.55 -52.93 -3.2C-52.07 -1.27 -51.28 -0.1 -50.56 0.3C-49.75 0.1 -49.01 -0.39 -48.34 -1.17C-48.21 -1.37 -48.03 -1.72 -47.79 -2.24C-47.55 -2.75 -47.31 -3.29 -47.07 -3.84C-46.84 -4.39 -46.63 -4.89 -46.45 -5.32C-46.28 -5.76 -46.19 -6.02 -46.19 -6.1C-45.94 -6.75 -45.71 -7.35 -45.49 -7.9C-45.28 -8.45 -45.07 -8.98 -44.87 -9.48C-44.85 -9.71 -44.78 -10.02 -44.67 -10.42C-44.55 -10.82 -44.43 -11.24 -44.29 -11.67C-44.15 -12.09 -44.03 -12.5 -43.93 -12.89C-43.83 -13.28 -43.77 -13.55 -43.74 -13.7Z M-35.2 -17.16C-35.2 -17.89 -35.52 -18.33 -36.14 -18.48L-37.87 -18.63C-38.02 -18.35 -38.2 -18.07 -38.4 -17.78C-38.6 -17.49 -38.7 -17.23 -38.7 -17.01C-38.7 -16.71 -38.58 -16.4 -38.34 -16.09C-38.11 -15.77 -37.81 -15.49 -37.46 -15.24C-37.21 -15.24 -36.95 -15.26 -36.69 -15.3C-36.43 -15.33 -36.18 -15.42 -35.96 -15.54C-35.73 -15.67 -35.55 -15.86 -35.41 -16.12C-35.27 -16.39 -35.2 -16.73 -35.2 -17.16ZM-36.48 -11.7C-36.73 -12.03 -37.1 -12.19 -37.57 -12.19C-38.02 -12.19 -38.38 -12 -38.63 -11.63C-38.73 -11.05 -38.83 -10.47 -38.95 -9.88C-39.06 -9.29 -39.17 -8.67 -39.27 -8.03C-39.37 -7.39 -39.45 -6.71 -39.51 -5.98C-39.57 -5.26 -39.61 -4.45 -39.61 -3.57C-39.61 -2.7 -39.51 -1.99 -39.32 -1.45C-39.13 -0.91 -38.79 -0.64 -38.29 -0.64C-37.71 -0.64 -37.32 -1 -37.12 -1.73C-37.15 -2.08 -37.17 -2.41 -37.18 -2.73C-37.19 -3.04 -37.2 -3.34 -37.2 -3.61C-37.2 -4.26 -37.16 -4.77 -37.08 -5.12C-37.08 -5.17 -37.09 -5.23 -37.1 -5.31C-37.12 -5.38 -37.12 -5.46 -37.12 -5.53C-37.12 -5.91 -37.07 -6.36 -36.97 -6.89C-36.87 -7.41 -36.82 -7.75 -36.82 -7.9C-36.82 -8.13 -36.83 -8.3 -36.86 -8.43C-36.73 -9.26 -36.64 -9.93 -36.58 -10.44C-36.51 -10.96 -36.48 -11.33 -36.48 -11.55Z M-20.19 -13.89C-20.44 -14.01 -20.84 -14.07 -21.39 -14.07C-21.57 -14.07 -21.76 -14.07 -21.96 -14.05C-22.16 -14.04 -22.37 -14.02 -22.6 -14C-22.65 -14 -22.7 -14 -22.75 -14.02C-22.8 -14.03 -22.86 -14.04 -22.94 -14.04C-23.04 -14.04 -23.14 -14.03 -23.26 -14.02C-23.37 -14 -23.49 -14 -23.61 -14C-24.34 -13.92 -24.68 -13.89 -24.63 -13.89C-24.63 -14.01 -24.62 -14.21 -24.59 -14.49C-24.57 -14.76 -24.55 -15.04 -24.53 -15.32C-24.52 -15.59 -24.5 -15.84 -24.48 -16.07C-24.45 -16.29 -24.44 -16.43 -24.44 -16.48C-24.44 -16.58 -24.4 -16.81 -24.33 -17.16C-24.25 -17.51 -24.18 -17.87 -24.1 -18.25C-24.03 -18.63 -23.96 -18.97 -23.89 -19.27C-23.83 -19.57 -23.8 -19.74 -23.8 -19.79C-23.95 -20.4 -24.37 -20.7 -25.04 -20.7C-25.39 -20.7 -25.69 -20.51 -25.93 -20.13C-26.17 -19.76 -26.36 -19.31 -26.51 -18.8C-26.66 -18.28 -26.77 -17.77 -26.85 -17.25C-26.92 -16.74 -26.97 -16.34 -27 -16.07L-27 -15.88C-27 -15.78 -27.01 -15.62 -27.02 -15.39C-27.03 -15.16 -27.04 -14.93 -27.06 -14.69C-27.07 -14.46 -27.08 -14.24 -27.09 -14.05C-27.11 -13.87 -27.11 -13.76 -27.11 -13.73C-27.84 -13.51 -28.48 -13.4 -29.03 -13.4L-29.26 -13.4C-29.76 -13.4 -30.18 -13.34 -30.52 -13.23C-30.86 -13.11 -31.12 -12.98 -31.31 -12.81C-31.5 -12.65 -31.63 -12.48 -31.7 -12.3C-31.78 -12.13 -31.82 -11.99 -31.82 -11.89C-31.82 -11.51 -31.67 -11.23 -31.36 -11.03C-31.06 -10.82 -30.71 -10.72 -30.31 -10.72C-28.98 -11.08 -27.98 -11.28 -27.3 -11.33C-27.33 -11.2 -27.34 -11.04 -27.36 -10.86C-27.37 -10.67 -27.38 -10.44 -27.38 -10.16C-27.38 -9.96 -27.37 -9.75 -27.36 -9.54C-27.34 -9.33 -27.34 -9.12 -27.34 -8.92C-27.34 -8.62 -27.35 -8.39 -27.38 -8.22C-27.4 -8.06 -27.43 -7.88 -27.45 -7.68C-27.48 -7.48 -27.5 -7.2 -27.53 -6.85C-27.55 -6.5 -27.56 -5.97 -27.56 -5.27C-27.56 -4.59 -27.48 -3.94 -27.3 -3.33C-27.12 -2.72 -26.89 -2.08 -26.59 -1.43C-26.49 -1.2 -26.28 -1 -25.98 -0.81C-25.68 -0.62 -25.35 -0.46 -24.99 -0.32C-24.62 -0.18 -24.26 -0.08 -23.91 0C-23.56 0.08 -23.3 0.11 -23.12 0.11C-22.75 0.11 -22.44 0 -22.2 -0.23C-21.96 -0.45 -21.84 -0.73 -21.84 -1.05C-21.84 -1.56 -22.15 -1.91 -22.75 -2.11C-23.32 -2.36 -23.76 -2.55 -24.06 -2.67C-24.37 -2.8 -24.58 -2.97 -24.7 -3.2C-24.83 -3.42 -24.9 -3.77 -24.93 -4.23C-24.95 -4.7 -24.98 -5.41 -25 -6.36C-25 -7.06 -24.95 -7.56 -24.85 -7.86C-24.88 -7.99 -24.9 -8.12 -24.91 -8.24C-24.92 -8.37 -24.93 -8.49 -24.93 -8.62C-24.93 -8.99 -24.9 -9.41 -24.85 -9.88C-24.8 -10.34 -24.78 -10.71 -24.78 -10.99L-24.78 -11.36C-24.7 -11.41 -24.46 -11.47 -24.05 -11.53C-23.63 -11.6 -23.2 -11.65 -22.75 -11.7C-22.3 -11.75 -21.89 -11.8 -21.52 -11.83L-20.98 -11.89L-20.83 -11.89C-20.2 -11.89 -19.89 -12.27 -19.89 -13.02C-19.89 -13.45 -19.99 -13.73 -20.19 -13.89Z M-3.82 -1.2C-3.87 -2.46 -3.93 -3.44 -3.99 -4.14C-4.05 -4.84 -4.1 -5.42 -4.14 -5.89C-4.18 -6.35 -4.21 -6.77 -4.25 -7.15C-4.29 -7.53 -4.32 -8.02 -4.35 -8.62C-4.67 -10.22 -5.19 -11.37 -5.91 -12.06C-6.62 -12.75 -7.58 -13.1 -8.79 -13.1C-9.41 -13.1 -10.02 -13.04 -10.59 -12.94C-10.84 -12.89 -11.11 -12.8 -11.38 -12.66C-11.66 -12.52 -11.92 -12.37 -12.15 -12.21C-12.39 -12.05 -12.6 -11.9 -12.78 -11.78C-12.95 -11.65 -13.06 -11.58 -13.11 -11.55L-13.11 -12.23C-13.11 -13.23 -13.05 -13.92 -12.93 -14.3C-12.73 -15.85 -12.56 -17.11 -12.44 -18.06C-12.31 -19.02 -12.22 -19.86 -12.17 -20.58C-12.2 -21.36 -12.57 -21.75 -13.3 -21.75C-13.75 -21.75 -14.1 -21.56 -14.36 -21.19C-14.61 -20.81 -14.79 -20.36 -14.92 -19.83C-15.05 -19.3 -15.13 -18.75 -15.16 -18.16C-15.2 -17.57 -15.22 -17.07 -15.22 -16.67C-15.22 -16.54 -15.21 -16.43 -15.2 -16.33C-15.19 -16.23 -15.18 -16.12 -15.18 -15.99C-15.26 -15.82 -15.32 -15.5 -15.37 -15.03C-15.42 -14.57 -15.47 -14.09 -15.52 -13.58C-15.57 -13.08 -15.61 -12.62 -15.64 -12.21C-15.66 -11.8 -15.69 -11.58 -15.71 -11.55C-15.69 -11.43 -15.67 -11.28 -15.67 -11.1L-15.67 -10.42C-15.65 -10.1 -15.65 -9.72 -15.67 -9.29C-15.7 -8.87 -15.72 -8.38 -15.75 -7.83C-15.82 -6.65 -15.89 -5.79 -15.94 -5.25C-15.99 -4.71 -16.03 -4.31 -16.07 -4.06C-16.11 -3.81 -16.13 -3.64 -16.14 -3.54C-16.16 -3.44 -16.16 -3.26 -16.16 -3.01C-16.16 -2.01 -16.07 -1.3 -15.9 -0.88C-15.72 -0.47 -15.35 -0.26 -14.77 -0.26C-14.07 -0.26 -13.68 -0.5 -13.6 -0.98C-13.58 -1.81 -13.55 -2.62 -13.53 -3.41C-13.5 -4.2 -13.48 -4.93 -13.45 -5.61C-13.43 -6.28 -13.4 -6.88 -13.36 -7.39C-13.32 -7.91 -13.26 -8.3 -13.19 -8.58C-13.11 -8.7 -12.94 -8.89 -12.68 -9.13C-12.42 -9.36 -12.09 -9.6 -11.7 -9.82C-11.31 -10.05 -10.89 -10.25 -10.42 -10.42C-9.96 -10.6 -9.5 -10.69 -9.05 -10.69C-8.8 -10.69 -8.54 -10.64 -8.26 -10.54C-7.98 -10.44 -7.73 -10.24 -7.49 -9.93C-7.25 -9.63 -7.06 -9.21 -6.91 -8.67C-6.75 -8.13 -6.68 -7.43 -6.68 -6.55C-6.68 -6.4 -6.69 -6.22 -6.7 -6C-6.71 -5.79 -6.72 -5.59 -6.72 -5.42C-6.72 -5.02 -6.67 -4.69 -6.57 -4.44C-6.57 -3.91 -6.55 -3.39 -6.53 -2.86C-6.5 -2.33 -6.45 -1.86 -6.38 -1.45C-6.3 -1.03 -6.18 -0.7 -6 -0.43C-5.83 -0.17 -5.58 -0.04 -5.25 -0.04C-4.97 -0.04 -4.69 -0.16 -4.4 -0.41C-4.11 -0.66 -3.92 -0.93 -3.82 -1.2Z M30.91 -11.48C30.81 -12.1 30.41 -12.42 29.71 -12.42C29.31 -12.42 28.89 -12.28 28.47 -12C28.42 -11.43 28.22 -10.78 27.88 -10.07C27.54 -9.35 27.24 -8.64 26.96 -7.94C26.59 -7.01 26.23 -6.11 25.89 -5.25C25.55 -4.38 25.28 -3.83 25.08 -3.57C24.85 -3.68 24.56 -3.89 24.2 -4.21C23.83 -4.54 23.46 -4.89 23.09 -5.27C22.71 -5.64 22.36 -6.01 22.05 -6.36C21.74 -6.71 21.51 -6.96 21.35 -7.11C21.28 -7.21 21.09 -7.47 20.79 -7.88C20.49 -8.3 20.16 -8.74 19.79 -9.2C19.43 -9.66 19.06 -10.08 18.68 -10.46C18.31 -10.84 17.99 -11.03 17.74 -11.03C17.39 -11.03 17.1 -10.87 16.86 -10.57C16.62 -10.27 16.5 -9.96 16.5 -9.63C16.5 -9.53 16.51 -9.46 16.54 -9.41C17.22 -8.28 17.74 -7.47 18.1 -6.98C18.46 -6.49 18.78 -6.12 19.06 -5.87C19.34 -5.62 19.61 -5.37 19.87 -5.14C20.13 -4.9 20.49 -4.47 20.94 -3.84C21.17 -3.74 21.41 -3.57 21.67 -3.33C21.94 -3.09 22.21 -2.84 22.48 -2.58C22.76 -2.31 23.02 -2.06 23.27 -1.83C23.52 -1.59 23.74 -1.42 23.91 -1.32C23.84 -1.02 23.68 -0.62 23.42 -0.13C23.17 0.36 22.91 0.85 22.63 1.35C22.36 1.86 22.11 2.32 21.88 2.75C21.66 3.17 21.51 3.5 21.43 3.73L18.98 7.38C18.88 7.5 18.83 7.64 18.83 7.79C18.83 8.07 18.98 8.3 19.27 8.49C19.55 8.67 19.86 8.77 20.19 8.77C20.34 8.77 20.49 8.74 20.64 8.69C21.17 8.17 21.57 7.71 21.84 7.32C22.12 6.93 22.36 6.55 22.56 6.17C22.76 5.79 22.97 5.4 23.2 4.99C23.42 4.57 23.74 4.09 24.14 3.54C24.39 2.78 24.75 2.05 25.23 1.34C25.71 0.62 26.19 -0.11 26.68 -0.87C27.17 -1.62 27.62 -2.41 28.03 -3.24C28.45 -4.06 28.73 -4.97 28.88 -5.95C29.16 -6.62 29.41 -7.19 29.65 -7.66C29.89 -8.12 30.1 -8.55 30.29 -8.96C30.48 -9.36 30.62 -9.75 30.72 -10.14C30.82 -10.53 30.89 -10.98 30.91 -11.48Z M45.02 -0.87C46 -2.32 46.49 -3.83 46.49 -5.38C46.49 -7.36 45.89 -9.18 44.69 -10.84C43.28 -11.97 41.74 -12.53 40.06 -12.53C39.48 -12.53 38.89 -12.46 38.29 -12.3C37.16 -11.43 36.32 -10.61 35.77 -9.84C35.22 -9.08 34.94 -8.2 34.94 -7.22C34.94 -6.02 35.15 -4.98 35.56 -4.1C35.97 -3.22 36.45 -2.5 36.99 -1.92C37.53 -1.34 38.06 -0.9 38.57 -0.6C39.08 -0.3 39.44 -0.11 39.64 -0.04L41.22 0.26C43.28 -0.16 44.55 -0.54 45.02 -0.87ZM41.6 -10.05C43.21 -9.42 44.01 -7.91 44.01 -5.53C44.01 -4.45 43.69 -3.52 43.07 -2.75C42.34 -2.45 41.69 -2.3 41.11 -2.3C40.48 -2.3 39.94 -2.43 39.49 -2.69C39.04 -2.95 38.67 -3.3 38.38 -3.73C38.09 -4.15 37.88 -4.62 37.74 -5.12C37.6 -5.62 37.54 -6.12 37.54 -6.62C37.54 -7.25 37.62 -7.8 37.8 -8.26C37.97 -8.72 38.21 -9.11 38.5 -9.41C38.78 -9.71 39.1 -9.93 39.44 -10.08C39.77 -10.24 40.09 -10.31 40.4 -10.31C40.82 -10.31 41.22 -10.22 41.6 -10.05Z M64.06 -13.77C63.94 -14.22 63.6 -14.45 63.05 -14.45C62.75 -14.45 62.51 -14.37 62.33 -14.21C62.16 -14.04 62.03 -13.84 61.94 -13.6C61.85 -13.36 61.79 -13.09 61.75 -12.78C61.71 -12.46 61.69 -12.15 61.69 -11.85L61.69 -11.44C61.69 -11.29 61.71 -11.14 61.73 -10.99C61.53 -10.11 61.37 -9.34 61.24 -8.67C61.12 -8.01 61.03 -7.44 60.98 -6.96C60.83 -6.59 60.6 -6.18 60.3 -5.74C60 -5.3 59.65 -4.9 59.25 -4.53C58.85 -4.17 58.39 -3.86 57.89 -3.61C57.39 -3.36 56.85 -3.24 56.28 -3.24C55.4 -3.24 54.8 -3.52 54.49 -4.08C54.17 -4.65 54.02 -5.32 54.02 -6.1C54.02 -6.3 54.04 -6.55 54.07 -6.85C54.11 -7.15 54.16 -7.48 54.21 -7.83L54.21 -8.02C54.21 -8.27 54.25 -8.62 54.34 -9.09C54.43 -9.55 54.52 -10.02 54.62 -10.5C54.72 -10.98 54.81 -11.41 54.9 -11.82C54.99 -12.22 55.03 -12.48 55.03 -12.61C55.03 -12.96 54.92 -13.22 54.69 -13.4C54.47 -13.57 54.19 -13.66 53.87 -13.66C53.52 -13.66 53.2 -13.52 52.93 -13.25C52.65 -12.27 52.43 -11.47 52.27 -10.86C52.1 -10.24 51.98 -9.73 51.89 -9.31C51.8 -8.9 51.75 -8.55 51.72 -8.26C51.7 -7.97 51.68 -7.66 51.68 -7.34C51.68 -7.11 51.7 -6.95 51.72 -6.85C51.7 -6.55 51.68 -6.28 51.68 -6.06L51.68 -5.46C51.68 -3.98 52.04 -2.86 52.76 -2.11C53.47 -1.35 54.51 -0.98 55.86 -0.98C56.26 -0.98 56.65 -0.99 57.01 -1.02C57.37 -1.04 57.75 -1.13 58.14 -1.28C58.53 -1.43 58.95 -1.67 59.42 -2.01C59.88 -2.35 60.41 -2.82 61.02 -3.42C60.99 -3.3 60.98 -3.11 60.98 -2.86L60.98 -2.13C60.98 -1.84 61.02 -1.56 61.09 -1.3C61.17 -1.03 61.29 -0.81 61.47 -0.62C61.64 -0.43 61.91 -0.34 62.26 -0.34C63.09 -0.34 63.5 -0.66 63.5 -1.32L63.35 -2.71C63.27 -3.19 63.24 -3.62 63.24 -4.03C63.24 -4.1 63.24 -4.17 63.26 -4.23C63.27 -4.3 63.27 -4.37 63.27 -4.44C63.37 -5.67 63.48 -6.65 63.59 -7.39C63.71 -8.13 63.8 -8.76 63.88 -9.28C63.95 -9.79 64.01 -10.25 64.06 -10.67C64.11 -11.08 64.14 -11.59 64.14 -12.19C64.14 -12.47 64.13 -12.73 64.12 -12.98C64.11 -13.23 64.09 -13.5 64.06 -13.77Z"></path></g></g></g></svg>